<svg xmlns="http://www.w3.org/2000/svg" xmlns:xlink="http://www.w3.org/1999/xlink" width="270pt" height="322pt" viewBox="0.00 0.00 270.00 322.00">
<g id="graph0" class="graph" transform="scale(1 1) rotate(0) translate(4 317.6)">
<title>FB</title>
<polygon fill="white" stroke="none" points="-4,4 -4,-317.6 266,-317.6 266,4 -4,4"/>
<g id="clust1" class="cluster">
<title>cluster_auth</title>
<path fill="none" stroke="#4a90e2" d="M20,-80C20,-80 118,-80 118,-80 124,-80 130,-86 130,-92 130,-92 130,-293.6 130,-293.6 130,-299.6 124,-305.6 118,-305.6 118,-305.6 20,-305.6 20,-305.6 14,-305.6 8,-299.6 8,-293.6 8,-293.6 8,-92 8,-92 8,-86 14,-80 20,-80"/>
<text xml:space="preserve" text-anchor="middle" x="69" y="-289" font-family="Times,serif" font-size="14.00">Auth</text>
</g>
<g id="clust2" class="cluster">
<title>cluster_users</title>
<path fill="none" stroke="#50c878" d="M150,-8C150,-8 242,-8 242,-8 248,-8 254,-14 254,-20 254,-20 254,-144.8 254,-144.8 254,-150.8 248,-156.8 242,-156.8 242,-156.8 150,-156.8 150,-156.8 144,-156.8 138,-150.8 138,-144.8 138,-144.8 138,-20 138,-20 138,-14 144,-8 150,-8"/>
<text xml:space="preserve" text-anchor="middle" x="196" y="-140.2" font-family="Times,serif" font-size="14.00">Users</text>
</g>
<!-- AuthController -->
<g id="node1" class="node">
<title>AuthController</title>
<path fill="none" stroke="black" d="M109.74,-272.8C109.74,-272.8 28.26,-272.8 28.26,-272.8 22.26,-272.8 16.26,-266.8 16.26,-260.8 16.26,-260.8 16.26,-248.8 16.26,-248.8 16.26,-242.8 22.26,-236.8 28.26,-236.8 28.26,-236.8 109.74,-236.8 109.74,-236.8 115.74,-236.8 121.74,-242.8 121.74,-248.8 121.74,-248.8 121.74,-260.8 121.74,-260.8 121.74,-266.8 115.74,-272.8 109.74,-272.8"/>
<text xml:space="preserve" text-anchor="middle" x="69" y="-250.6" font-family="Helvetica,sans-Serif" font-size="14.00">AuthController</text>
</g>
<!-- AuthService -->
<g id="node2" class="node">
<title>AuthService</title>
<path fill="none" stroke="black" d="M105.74,-200.8C105.74,-200.8 38.26,-200.8 38.26,-200.8 32.26,-200.8 26.26,-194.8 26.26,-188.8 26.26,-188.8 26.26,-176.8 26.26,-176.8 26.26,-170.8 32.26,-164.8 38.26,-164.8 38.26,-164.8 105.74,-164.8 105.74,-164.8 111.74,-164.8 117.74,-170.8 117.74,-176.8 117.74,-176.8 117.74,-188.8 117.74,-188.8 117.74,-194.8 111.74,-200.8 105.74,-200.8"/>
<text xml:space="preserve" text-anchor="middle" x="72" y="-178.6" font-family="Helvetica,sans-Serif" font-size="14.00">AuthService</text>
</g>
<!-- AuthController&#45;&gt;AuthService -->
<g id="edge1" class="edge">
<title>AuthController-&gt;AuthService</title>
<path fill="none" stroke="black" d="M69.74,-236.5C70.05,-229.21 70.43,-220.53 70.78,-212.34"/>
<polygon fill="black" stroke="black" points="74.27,-212.56 71.2,-202.42 67.28,-212.26 74.27,-212.56"/>
</g>
<!-- JwtService -->
<g id="node3" class="node">
<title>JwtService</title>
<path fill="none" stroke="black" stroke-dasharray="5,2" d="M101.84,-124C101.84,-124 42.16,-124 42.16,-124 36.16,-124 30.16,-118 30.16,-112 30.16,-112 30.16,-100 30.16,-100 30.16,-94 36.16,-88 42.16,-88 42.16,-88 101.84,-88 101.84,-88 107.84,-88 113.84,-94 113.84,-100 113.84,-100 113.84,-112 113.84,-112 113.84,-118 107.84,-124 101.84,-124"/>
<text xml:space="preserve" text-anchor="middle" x="72" y="-101.8" font-family="Helvetica,sans-Serif" font-size="14.00">JwtService</text>
</g>
<!-- AuthService&#45;&gt;JwtService -->
<g id="edge2" class="edge">
<title>AuthService-&gt;JwtService</title>
<path fill="none" stroke="black" d="M72,-164.45C72,-155.86 72,-145.27 72,-135.52"/>
<polygon fill="black" stroke="black" points="75.5,-135.77 72,-125.77 68.5,-135.77 75.5,-135.77"/>
</g>
<!-- UsersService -->
<g id="node4" class="node">
<title>UsersService</title>
<path fill="none" stroke="black" d="M233.62,-124C233.62,-124 158.38,-124 158.38,-124 152.38,-124 146.38,-118 146.38,-112 146.38,-112 146.38,-100 146.38,-100 146.38,-94 152.38,-88 158.38,-88 158.38,-88 233.62,-88 233.62,-88 239.62,-88 245.62,-94 245.62,-100 245.62,-100 245.62,-112 245.62,-112 245.62,-118 239.62,-124 233.62,-124"/>
<text xml:space="preserve" text-anchor="middle" x="196" y="-101.8" font-family="Helvetica,sans-Serif" font-size="14.00">UsersService</text>
</g>
<!-- AuthService&#45;&gt;UsersService -->
<g id="edge4" class="edge">
<title>AuthService-&gt;UsersService</title>
<path fill="none" stroke="black" d="M118.1,-164.99C123.58,-162.47 128.99,-159.73 134,-156.8 146.07,-149.73 158.3,-140.45 168.67,-131.83"/>
<polygon fill="black" stroke="black" points="170.78,-134.63 176.1,-125.47 166.23,-129.31 170.78,-134.63"/>
</g>
<!-- User -->
<g id="node5" class="node">
<title>User</title>
<path fill="none" stroke="black" d="M211,-52C211,-52 181,-52 181,-52 175,-52 169,-46 169,-40 169,-40 169,-28 169,-28 169,-22 175,-16 181,-16 181,-16 211,-16 211,-16 217,-16 223,-22 223,-28 223,-28 223,-40 223,-40 223,-46 217,-52 211,-52"/>
<text xml:space="preserve" text-anchor="middle" x="196" y="-29.8" font-family="Helvetica,sans-Serif" font-size="14.00">User</text>
</g>
<!-- UsersService&#45;&gt;User -->
<g id="edge3" class="edge">
<title>UsersService-&gt;User</title>
<path fill="none" stroke="black" d="M196,-87.7C196,-80.41 196,-71.73 196,-63.54"/>
<polygon fill="black" stroke="black" points="199.5,-63.62 196,-53.62 192.5,-63.62 199.5,-63.62"/>
</g>
</g>
</svg>
