<svg xmlns="http://www.w3.org/2000/svg" xmlns:xlink="http://www.w3.org/1999/xlink" width="202pt" height="471pt" viewBox="0.00 0.00 202.00 471.00">
<g id="graph0" class="graph" transform="scale(1 1) rotate(0) translate(4 466.8)">
<title>FB_Users_Compact</title>
<polygon fill="white" stroke="none" points="-4,4 -4,-466.8 198,-466.8 198,4 -4,4"/>
<g id="clust1" class="cluster">
<title>cluster_users</title>
<path fill="none" stroke="#50c878" d="M20,-8C20,-8 174,-8 174,-8 180,-8 186,-14 186,-20 186,-20 186,-442.8 186,-442.8 186,-448.8 180,-454.8 174,-454.8 174,-454.8 20,-454.8 20,-454.8 14,-454.8 8,-448.8 8,-442.8 8,-442.8 8,-20 8,-20 8,-14 14,-8 20,-8"/>
<text xml:space="preserve" text-anchor="middle" x="97" y="-438.2" font-family="Times,serif" font-size="14.00">Users module</text>
</g>
<!-- Controllers -->
<g id="node1" class="node">
<title>Controllers</title>
<path fill="white" stroke="black" d="M144.64,-422C144.64,-422 41.36,-422 41.36,-422 35.36,-422 29.36,-416 29.36,-410 29.36,-410 29.36,-370 29.36,-370 29.36,-364 35.36,-358 41.36,-358 41.36,-358 144.64,-358 144.64,-358 150.64,-358 156.64,-364 156.64,-370 156.64,-370 156.64,-410 156.64,-410 156.64,-416 150.64,-422 144.64,-422"/>
<text xml:space="preserve" text-anchor="start" x="37.36" y="-406.4" font-family="Helvetica,sans-Serif" font-weight="bold" font-size="14.00">Controllers</text>
<text xml:space="preserve" text-anchor="start" x="37.36" y="-392.4" font-family="Helvetica,sans-Serif" font-size="14.00">UsersController</text>
<text xml:space="preserve" text-anchor="start" x="37.36" y="-378.4" font-family="Helvetica,sans-Serif" font-size="14.00">ProfileController</text>
<text xml:space="preserve" text-anchor="start" x="37.36" y="-364.4" font-family="Helvetica,sans-Serif" font-size="14.00">SettingsController</text>
</g>
<!-- UsersService -->
<g id="node2" class="node">
<title>UsersService</title>
<path fill="white" stroke="black" d="M103.62,-194C103.62,-194 28.38,-194 28.38,-194 22.38,-194 16.38,-188 16.38,-182 16.38,-182 16.38,-170 16.38,-170 16.38,-164 22.38,-158 28.38,-158 28.38,-158 103.62,-158 103.62,-158 109.62,-158 115.62,-164 115.62,-170 115.62,-170 115.62,-182 115.62,-182 115.62,-188 109.62,-194 103.62,-194"/>
<text xml:space="preserve" text-anchor="middle" x="66" y="-171.8" font-family="Helvetica,sans-Serif" font-size="14.00">UsersService</text>
</g>
<!-- Controllers&#45;&gt;UsersService -->
<g id="edge1" class="edge">
<title>Controllers-&gt;UsersService</title>
<path fill="none" stroke="black" d="M52.42,-357.83C42.17,-347.64 32.51,-335.45 27,-322 11.49,-284.17 14.25,-268.85 27,-230 30.12,-220.48 35.68,-211.27 41.64,-203.26"/>
<polygon fill="black" stroke="black" points="44.22,-205.64 47.76,-195.66 38.76,-201.26 44.22,-205.64"/>
</g>
<!-- SatelliteServices -->
<g id="node3" class="node">
<title>SatelliteServices</title>
<path fill="white" stroke="black" d="M166.41,-322C166.41,-322 47.59,-322 47.59,-322 41.59,-322 35.59,-316 35.59,-310 35.59,-310 35.59,-242 35.59,-242 35.59,-236 41.59,-230 47.59,-230 47.59,-230 166.41,-230 166.41,-230 172.41,-230 178.41,-236 178.41,-242 178.41,-242 178.41,-310 178.41,-310 178.41,-316 172.41,-322 166.41,-322"/>
<text xml:space="preserve" text-anchor="start" x="43.59" y="-306.4" font-family="Helvetica,sans-Serif" font-weight="bold" font-size="14.00">Satellite services</text>
<text xml:space="preserve" text-anchor="start" x="43.59" y="-292.4" font-family="Helvetica,sans-Serif" font-size="14.00">UserProfileService</text>
<text xml:space="preserve" text-anchor="start" x="43.59" y="-278.4" font-family="Helvetica,sans-Serif" font-size="14.00">UserSettingsService</text>
<text xml:space="preserve" text-anchor="start" x="43.59" y="-264.4" font-family="Helvetica,sans-Serif" font-size="14.00">UserPrivacyService</text>
<text xml:space="preserve" text-anchor="start" x="43.59" y="-250.4" font-family="Helvetica,sans-Serif" font-size="14.00">UserStatsService</text>
<text xml:space="preserve" text-anchor="start" x="43.59" y="-236.4" font-family="Helvetica,sans-Serif" font-size="14.00">UserSessionService</text>
</g>
<!-- Controllers&#45;&gt;SatelliteServices -->
<g id="edge2" class="edge">
<title>Controllers-&gt;SatelliteServices</title>
<path fill="none" stroke="black" d="M96.94,-357.5C97.87,-350.03 98.9,-341.83 99.92,-333.62"/>
<polygon fill="black" stroke="black" points="103.36,-334.33 101.13,-323.97 96.42,-333.46 103.36,-334.33"/>
</g>
<!-- Entities -->
<g id="node4" class="node">
<title>Entities</title>
<path fill="white" stroke="black" d="M134.07,-122C134.07,-122 61.93,-122 61.93,-122 55.93,-122 49.93,-116 49.93,-110 49.93,-110 49.93,-28 49.93,-28 49.93,-22 55.93,-16 61.93,-16 61.93,-16 134.07,-16 134.07,-16 140.07,-16 146.07,-22 146.07,-28 146.07,-28 146.07,-110 146.07,-110 146.07,-116 140.07,-122 134.07,-122"/>
<text xml:space="preserve" text-anchor="start" x="57.93" y="-106.4" font-family="Helvetica,sans-Serif" font-weight="bold" font-size="14.00">entities/</text>
<text xml:space="preserve" text-anchor="start" x="57.93" y="-92.4" font-family="Helvetica,sans-Serif" font-size="14.00">User</text>
<text xml:space="preserve" text-anchor="start" x="57.93" y="-78.4" font-family="Helvetica,sans-Serif" font-size="14.00">UserProfile</text>
<text xml:space="preserve" text-anchor="start" x="57.93" y="-64.4" font-family="Helvetica,sans-Serif" font-size="14.00">UserSettings</text>
<text xml:space="preserve" text-anchor="start" x="57.93" y="-50.4" font-family="Helvetica,sans-Serif" font-size="14.00">UserPrivacy</text>
<text xml:space="preserve" text-anchor="start" x="57.93" y="-36.4" font-family="Helvetica,sans-Serif" font-size="14.00">UserStats</text>
<text xml:space="preserve" text-anchor="start" x="57.93" y="-22.4" font-family="Helvetica,sans-Serif" font-size="14.00">UserSession</text>
</g>
<!-- UsersService&#45;&gt;Entities -->
<g id="edge4" class="edge">
<title>UsersService-&gt;Entities</title>
<path fill="none" stroke="black" d="M71.28,-157.66C73.43,-150.63 76.05,-142.04 78.8,-133.01"/>
<polygon fill="black" stroke="black" points="82.06,-134.32 81.62,-123.74 75.36,-132.28 82.06,-134.32"/>
</g>
<!-- SatelliteServices&#45;&gt;UsersService -->
<g id="edge3" class="edge">
<title>SatelliteServices-&gt;UsersService</title>
<path fill="none" stroke="black" d="M88.06,-229.73C84.47,-221.14 80.81,-212.4 77.53,-204.56"/>
<polygon fill="black" stroke="black" points="80.87,-203.48 73.78,-195.6 74.41,-206.18 80.87,-203.48"/>
</g>
<!-- SatelliteServices&#45;&gt;Entities -->
<g id="edge5" class="edge">
<title>SatelliteServices-&gt;Entities</title>
<path fill="none" stroke="black" d="M120.37,-229.73C125.14,-208.04 128.55,-181.68 125,-158 123.79,-149.96 122,-141.64 119.9,-133.47"/>
<polygon fill="black" stroke="black" points="123.3,-132.63 117.28,-123.92 116.55,-134.49 123.3,-132.63"/>
</g>
</g>
</svg>