<svg xmlns="http://www.w3.org/2000/svg" xmlns:xlink="http://www.w3.org/1999/xlink" width="571pt" height="577pt" viewBox="0.00 0.00 571.00 577.00">
<g id="graph0" class="graph" transform="scale(1 1) rotate(0) translate(4 573.4)">
<title>FBCA</title>
<polygon fill="white" stroke="none" points="-4,4 -4,-573.4 567,-573.4 567,4 -4,4"/>
<g id="clust1" class="cluster">
<title>cluster_auth</title>
<path fill="none" stroke="#4a90e2" d="M20,-227C20,-227 196,-227 196,-227 202,-227 208,-233 208,-239 208,-239 208,-549.4 208,-549.4 208,-555.4 202,-561.4 196,-561.4 196,-561.4 20,-561.4 20,-561.4 14,-561.4 8,-555.4 8,-549.4 8,-549.4 8,-239 8,-239 8,-233 14,-227 20,-227"/>
<text xml:space="preserve" text-anchor="middle" x="108" y="-544.8" font-family="Times,serif" font-size="14.00">Auth</text>
</g>
<g id="clust2" class="cluster">
<title>cluster_users</title>
<path fill="none" stroke="#50c878" d="M228,-8C228,-8 543,-8 543,-8 549,-8 555,-14 555,-20 555,-20 555,-291.8 555,-291.8 555,-297.8 549,-303.8 543,-303.8 543,-303.8 228,-303.8 228,-303.8 222,-303.8 216,-297.8 216,-291.8 216,-291.8 216,-20 216,-20 216,-14 222,-8 228,-8"/>
<text xml:space="preserve" text-anchor="middle" x="385.5" y="-287.2" font-family="Times,serif" font-size="14.00">Users</text>
</g>
<!-- AuthPresentationController -->
<g id="node1" class="node">
<title>AuthPresentationController</title>
<path fill="none" stroke="black" d="M188.05,-528.6C188.05,-528.6 27.95,-528.6 27.95,-528.6 21.95,-528.6 15.95,-522.6 15.95,-516.6 15.95,-516.6 15.95,-504.6 15.95,-504.6 15.95,-498.6 21.95,-492.6 27.95,-492.6 27.95,-492.6 188.05,-492.6 188.05,-492.6 194.05,-492.6 200.05,-498.6 200.05,-504.6 200.05,-504.6 200.05,-516.6 200.05,-516.6 200.05,-522.6 194.05,-528.6 188.05,-528.6"/>
<text xml:space="preserve" text-anchor="middle" x="108" y="-506.4" font-family="Helvetica,sans-Serif" font-size="14.00">AuthPresentationController</text>
</g>
<!-- AuthPresentationService -->
<g id="node2" class="node">
<title>AuthPresentationService</title>
<path fill="none" stroke="black" d="M186.04,-455.6C186.04,-455.6 39.96,-455.6 39.96,-455.6 33.96,-455.6 27.96,-449.6 27.96,-443.6 27.96,-443.6 27.96,-431.6 27.96,-431.6 27.96,-425.6 33.96,-419.6 39.96,-419.6 39.96,-419.6 186.04,-419.6 186.04,-419.6 192.04,-419.6 198.04,-425.6 198.04,-431.6 198.04,-431.6 198.04,-443.6 198.04,-443.6 198.04,-449.6 192.04,-455.6 186.04,-455.6"/>
<text xml:space="preserve" text-anchor="middle" x="113" y="-433.4" font-family="Helvetica,sans-Serif" font-size="14.00">AuthPresentationService</text>
</g>
<!-- AuthPresentationController&#45;&gt;AuthPresentationService -->
<g id="edge1" class="edge">
<title>AuthPresentationController-&gt;AuthPresentationService</title>
<path fill="none" stroke="black" d="M109.21,-492.41C109.75,-484.74 110.4,-475.49 111.01,-466.84"/>
<polygon fill="black" stroke="black" points="114.48,-467.36 111.69,-457.14 107.5,-466.87 114.48,-467.36"/>
</g>
<!-- SignUpHandler -->
<g id="node3" class="node">
<title>SignUpHandler</title>
<path fill="none" stroke="black" d="M181.47,-382.6C181.47,-382.6 94.53,-382.6 94.53,-382.6 88.53,-382.6 82.53,-376.6 82.53,-370.6 82.53,-370.6 82.53,-358.6 82.53,-358.6 82.53,-352.6 88.53,-346.6 94.53,-346.6 94.53,-346.6 181.47,-346.6 181.47,-346.6 187.47,-346.6 193.47,-352.6 193.47,-358.6 193.47,-358.6 193.47,-370.6 193.47,-370.6 193.47,-376.6 187.47,-382.6 181.47,-382.6"/>
<text xml:space="preserve" text-anchor="middle" x="138" y="-360.4" font-family="Helvetica,sans-Serif" font-size="14.00">SignUpHandler</text>
</g>
<!-- AuthPresentationService&#45;&gt;SignUpHandler -->
<g id="edge2" class="edge">
<title>AuthPresentationService-&gt;SignUpHandler</title>
<path fill="none" stroke="black" d="M119.05,-419.41C121.82,-411.56 125.16,-402.07 128.26,-393.26"/>
<polygon fill="black" stroke="black" points="131.48,-394.65 131.5,-384.06 124.88,-392.33 131.48,-394.65"/>
</g>
<!-- JwtService -->
<g id="node4" class="node">
<title>JwtService</title>
<path fill="none" stroke="black" stroke-dasharray="5,2" d="M167.84,-271C167.84,-271 108.16,-271 108.16,-271 102.16,-271 96.16,-265 96.16,-259 96.16,-259 96.16,-247 96.16,-247 96.16,-241 102.16,-235 108.16,-235 108.16,-235 167.84,-235 167.84,-235 173.84,-235 179.84,-241 179.84,-247 179.84,-247 179.84,-259 179.84,-259 179.84,-265 173.84,-271 167.84,-271"/>
<text xml:space="preserve" text-anchor="middle" x="138" y="-248.8" font-family="Helvetica,sans-Serif" font-size="14.00">JwtService</text>
</g>
<!-- SignUpHandler&#45;&gt;JwtService -->
<g id="edge3" class="edge">
<title>SignUpHandler-&gt;JwtService</title>
<path fill="none" stroke="black" d="M138,-346.47C138,-329.44 138,-303 138,-282.75"/>
<polygon fill="black" stroke="black" points="141.5,-282.88 138,-272.88 134.5,-282.88 141.5,-282.88"/>
</g>
<!-- UsersExternalService -->
<g id="node5" class="node">
<title>UsersExternalService</title>
<path fill="none" stroke="black" d="M371.3,-271C371.3,-271 244.7,-271 244.7,-271 238.7,-271 232.7,-265 232.7,-259 232.7,-259 232.7,-247 232.7,-247 232.7,-241 238.7,-235 244.7,-235 244.7,-235 371.3,-235 371.3,-235 377.3,-235 383.3,-241 383.3,-247 383.3,-247 383.3,-259 383.3,-259 383.3,-265 377.3,-271 371.3,-271"/>
<text xml:space="preserve" text-anchor="middle" x="308" y="-248.8" font-family="Helvetica,sans-Serif" font-size="14.00">UsersExternalService</text>
</g>
<!-- SignUpHandler&#45;&gt;UsersExternalService -->
<g id="edge10" class="edge">
<title>SignUpHandler-&gt;UsersExternalService</title>
<path fill="none" stroke="black" stroke-dasharray="5,2" d="M164.94,-346.23C193.7,-327.69 239.45,-298.19 271.45,-277.56"/>
<polygon fill="black" stroke="black" points="273.13,-280.65 279.64,-272.29 269.33,-274.76 273.13,-280.65"/>
<text xml:space="preserve" text-anchor="middle" x="256.81" y="-316" font-family="Helvetica,sans-Serif" font-size="14.00">external port</text>
</g>
<!-- GetUserByEmailHandler -->
<g id="node6" class="node">
<title>GetUserByEmailHandler</title>
<path fill="none" stroke="black" d="M380.25,-198C380.25,-198 235.75,-198 235.75,-198 229.75,-198 223.75,-192 223.75,-186 223.75,-186 223.75,-174 223.75,-174 223.75,-168 229.75,-162 235.75,-162 235.75,-162 380.25,-162 380.25,-162 386.25,-162 392.25,-168 392.25,-174 392.25,-174 392.25,-186 392.25,-186 392.25,-192 386.25,-198 380.25,-198"/>
<text xml:space="preserve" text-anchor="middle" x="308" y="-175.8" font-family="Helvetica,sans-Serif" font-size="14.00">GetUserByEmailHandler</text>
</g>
<!-- UsersExternalService&#45;&gt;GetUserByEmailHandler -->
<g id="edge4" class="edge">
<title>UsersExternalService-&gt;GetUserByEmailHandler</title>
<path fill="none" stroke="black" d="M308,-234.81C308,-227.23 308,-218.1 308,-209.54"/>
<polygon fill="black" stroke="black" points="311.5,-209.54 308,-199.54 304.5,-209.54 311.5,-209.54"/>
</g>
<!-- CreateUserHandler -->
<g id="node7" class="node">
<title>CreateUserHandler</title>
<path fill="none" stroke="black" d="M535.3,-198C535.3,-198 422.7,-198 422.7,-198 416.7,-198 410.7,-192 410.7,-186 410.7,-186 410.7,-174 410.7,-174 410.7,-168 416.7,-162 422.7,-162 422.7,-162 535.3,-162 535.3,-162 541.3,-162 547.3,-168 547.3,-174 547.3,-174 547.3,-186 547.3,-186 547.3,-192 541.3,-198 535.3,-198"/>
<text xml:space="preserve" text-anchor="middle" x="479" y="-175.8" font-family="Helvetica,sans-Serif" font-size="14.00">CreateUserHandler</text>
</g>
<!-- UsersExternalService&#45;&gt;CreateUserHandler -->
<g id="edge5" class="edge">
<title>UsersExternalService-&gt;CreateUserHandler</title>
<path fill="none" stroke="black" d="M349.83,-234.63C372.91,-225.05 401.8,-213.05 426.4,-202.84"/>
<polygon fill="black" stroke="black" points="427.72,-206.08 435.61,-199.02 425.03,-199.62 427.72,-206.08"/>
</g>
<!-- UserRepository -->
<g id="node8" class="node">
<title>UserRepository</title>
<path fill="none" stroke="black" d="M376.24,-125C376.24,-125 287.76,-125 287.76,-125 281.76,-125 275.76,-119 275.76,-113 275.76,-113 275.76,-101 275.76,-101 275.76,-95 281.76,-89 287.76,-89 287.76,-89 376.24,-89 376.24,-89 382.24,-89 388.24,-95 388.24,-101 388.24,-101 388.24,-113 388.24,-113 388.24,-119 382.24,-125 376.24,-125"/>
<text xml:space="preserve" text-anchor="middle" x="332" y="-102.8" font-family="Helvetica,sans-Serif" font-size="14.00">UserRepository</text>
</g>
<!-- GetUserByEmailHandler&#45;&gt;UserRepository -->
<g id="edge6" class="edge">
<title>GetUserByEmailHandler-&gt;UserRepository</title>
<path fill="none" stroke="black" d="M313.81,-161.81C316.46,-153.96 319.67,-144.47 322.65,-135.66"/>
<polygon fill="black" stroke="black" points="325.87,-137.06 325.76,-126.46 319.24,-134.82 325.87,-137.06"/>
</g>
<!-- CreateUserHandler&#45;&gt;UserRepository -->
<g id="edge7" class="edge">
<title>CreateUserHandler-&gt;UserRepository</title>
<path fill="none" stroke="black" d="M443.04,-161.63C423.55,-152.22 399.25,-140.48 378.36,-130.39"/>
<polygon fill="black" stroke="black" points="379.99,-127.29 369.46,-126.09 376.94,-133.59 379.99,-127.29"/>
</g>
<!-- User -->
<g id="node9" class="node">
<title>User</title>
<path fill="none" stroke="black" d="M299,-52C299,-52 269,-52 269,-52 263,-52 257,-46 257,-40 257,-40 257,-28 257,-28 257,-22 263,-16 269,-16 269,-16 299,-16 299,-16 305,-16 311,-22 311,-28 311,-28 311,-40 311,-40 311,-46 305,-52 299,-52"/>
<text xml:space="preserve" text-anchor="middle" x="284" y="-29.8" font-family="Helvetica,sans-Serif" font-size="14.00">User</text>
</g>
<!-- UserRepository&#45;&gt;User -->
<g id="edge8" class="edge">
<title>UserRepository-&gt;User</title>
<path fill="none" stroke="black" d="M320.38,-88.81C314.84,-80.62 308.08,-70.62 301.91,-61.48"/>
<polygon fill="black" stroke="black" points="304.86,-59.61 296.36,-53.28 299.06,-63.53 304.86,-59.61"/>
</g>
<!-- UserEntity -->
<g id="node10" class="node">
<title>UserEntity</title>
<path fill="none" stroke="black" d="M397.29,-52C397.29,-52 340.71,-52 340.71,-52 334.71,-52 328.71,-46 328.71,-40 328.71,-40 328.71,-28 328.71,-28 328.71,-22 334.71,-16 340.71,-16 340.71,-16 397.29,-16 397.29,-16 403.29,-16 409.29,-22 409.29,-28 409.29,-28 409.29,-40 409.29,-40 409.29,-46 403.29,-52 397.29,-52"/>
<text xml:space="preserve" text-anchor="middle" x="369" y="-29.8" font-family="Helvetica,sans-Serif" font-size="14.00">UserEntity</text>
</g>
<!-- UserRepository&#45;&gt;UserEntity -->
<g id="edge9" class="edge">
<title>UserRepository-&gt;UserEntity</title>
<path fill="none" stroke="black" d="M340.96,-88.81C345.14,-80.79 350.21,-71.05 354.89,-62.07"/>
<polygon fill="black" stroke="black" points="357.91,-63.86 359.43,-53.37 351.7,-60.62 357.91,-63.86"/>
</g>
</g>
</svg>