<svg xmlns="http://www.w3.org/2000/svg" xmlns:xlink="http://www.w3.org/1999/xlink" width="448pt" height="541pt" viewBox="0.00 0.00 448.00 541.00">
<g id="graph0" class="graph" transform="scale(1 1) rotate(0) translate(4 536.8)">
<title>FBCA_Users</title>
<polygon fill="white" stroke="none" points="-4,4 -4,-536.8 444,-536.8 444,4 -4,4"/>
<g id="clust1" class="cluster">
<title>cluster_users</title>
<path fill="none" stroke="#50c878" d="M20,-8C20,-8 420,-8 420,-8 426,-8 432,-14 432,-20 432,-20 432,-512.8 432,-512.8 432,-518.8 426,-524.8 420,-524.8 420,-524.8 20,-524.8 20,-524.8 14,-524.8 8,-518.8 8,-512.8 8,-512.8 8,-20 8,-20 8,-14 14,-8 20,-8"/>
<text xml:space="preserve" text-anchor="middle" x="220" y="-508.2" font-family="Times,serif" font-size="14.00">Users module</text>
</g>
<!-- UsersController -->
<g id="node1" class="node">
<title>UsersController</title>
<path fill="white" stroke="black" d="M166.62,-492C166.62,-492 77.38,-492 77.38,-492 71.38,-492 65.38,-486 65.38,-480 65.38,-480 65.38,-468 65.38,-468 65.38,-462 71.38,-456 77.38,-456 77.38,-456 166.62,-456 166.62,-456 172.62,-456 178.62,-462 178.62,-468 178.62,-468 178.62,-480 178.62,-480 178.62,-486 172.62,-492 166.62,-492"/>
<text xml:space="preserve" text-anchor="middle" x="122" y="-469.8" font-family="Helvetica,sans-Serif" font-size="14.00">UsersController</text>
</g>
<!-- PresentationUseCases -->
<g id="node3" class="node">
<title>PresentationUseCases</title>
<path fill="white" stroke="black" d="M215.67,-420C215.67,-420 28.33,-420 28.33,-420 22.33,-420 16.33,-414 16.33,-408 16.33,-408 16.33,-312 16.33,-312 16.33,-306 22.33,-300 28.33,-300 28.33,-300 215.67,-300 215.67,-300 221.67,-300 227.67,-306 227.67,-312 227.67,-312 227.67,-408 227.67,-408 227.67,-414 221.67,-420 215.67,-420"/>
<text xml:space="preserve" text-anchor="start" x="24.33" y="-404.4" font-family="Helvetica,sans-Serif" font-weight="bold" font-size="14.00">use-case/presentation/</text>
<text xml:space="preserve" text-anchor="start" x="24.33" y="-390.4" font-family="Helvetica,sans-Serif" font-size="14.00">GetProfileHandler</text>
<text xml:space="preserve" text-anchor="start" x="24.33" y="-376.4" font-family="Helvetica,sans-Serif" font-size="14.00">UpdateProfileHandler</text>
<text xml:space="preserve" text-anchor="start" x="24.33" y="-362.4" font-family="Helvetica,sans-Serif" font-size="14.00">UpdateAccountSettingsHandler</text>
<text xml:space="preserve" text-anchor="start" x="24.33" y="-348.4" font-family="Helvetica,sans-Serif" font-size="14.00">UpdatePrivacyHandler</text>
<text xml:space="preserve" text-anchor="start" x="24.33" y="-334.4" font-family="Helvetica,sans-Serif" font-size="14.00">UpdatePreferencesHandler</text>
<text xml:space="preserve" text-anchor="start" x="24.33" y="-320.4" font-family="Helvetica,sans-Serif" font-size="14.00">GetUserStatsHandler</text>
<text xml:space="preserve" text-anchor="start" x="24.33" y="-306.4" font-family="Helvetica,sans-Serif" font-size="14.00">GetCurrentUserHandler</text>
</g>
<!-- UsersController&#45;&gt;PresentationUseCases -->
<g id="edge1" class="edge">
<title>UsersController-&gt;PresentationUseCases</title>
<path fill="none" stroke="black" d="M122,-455.5C122,-448.67 122,-440.35 122,-431.51"/>
<polygon fill="black" stroke="black" points="125.5,-431.63 122,-421.63 118.5,-431.63 125.5,-431.63"/>
</g>
<!-- UsersExternalService -->
<g id="node2" class="node">
<title>UsersExternalService</title>
<path fill="white" stroke="black" d="M398.3,-492C398.3,-492 271.7,-492 271.7,-492 265.7,-492 259.7,-486 259.7,-480 259.7,-480 259.7,-468 259.7,-468 259.7,-462 265.7,-456 271.7,-456 271.7,-456 398.3,-456 398.3,-456 404.3,-456 410.3,-462 410.3,-468 410.3,-468 410.3,-480 410.3,-480 410.3,-486 404.3,-492 398.3,-492"/>
<text xml:space="preserve" text-anchor="middle" x="335" y="-469.8" font-family="Helvetica,sans-Serif" font-size="14.00">UsersExternalService</text>
</g>
<!-- ExternalUseCases -->
<g id="node4" class="node">
<title>ExternalUseCases</title>
<path fill="white" stroke="black" d="M412.32,-420C412.32,-420 257.68,-420 257.68,-420 251.68,-420 245.68,-414 245.68,-408 245.68,-408 245.68,-312 245.68,-312 245.68,-306 251.68,-300 257.68,-300 257.68,-300 412.32,-300 412.32,-300 418.32,-300 424.32,-306 424.32,-312 424.32,-312 424.32,-408 424.32,-408 424.32,-414 418.32,-420 412.32,-420"/>
<text xml:space="preserve" text-anchor="start" x="253.68" y="-404.4" font-family="Helvetica,sans-Serif" font-weight="bold" font-size="14.00">use-case/external/</text>
<text xml:space="preserve" text-anchor="start" x="253.68" y="-390.4" font-family="Helvetica,sans-Serif" font-size="14.00">CreateUserHandler</text>
<text xml:space="preserve" text-anchor="start" x="253.68" y="-376.4" font-family="Helvetica,sans-Serif" font-size="14.00">GetUserByEmailHandler</text>
<text xml:space="preserve" text-anchor="start" x="253.68" y="-362.4" font-family="Helvetica,sans-Serif" font-size="14.00">CheckUserExistsHandler</text>
<text xml:space="preserve" text-anchor="start" x="253.68" y="-348.4" font-family="Helvetica,sans-Serif" font-size="14.00">GetFollowingIdsHandler</text>
<text xml:space="preserve" text-anchor="start" x="253.68" y="-334.4" font-family="Helvetica,sans-Serif" font-size="14.00">CanViewContentHandler</text>
<text xml:space="preserve" text-anchor="start" x="253.68" y="-320.4" font-family="Helvetica,sans-Serif" font-size="14.00">GetPublicUserInfoHandler</text>
<text xml:space="preserve" text-anchor="start" x="253.68" y="-306.4" font-family="Helvetica,sans-Serif" font-size="14.00">IsUserBlockedHandler</text>
</g>
<!-- UsersExternalService&#45;&gt;ExternalUseCases -->
<g id="edge2" class="edge">
<title>UsersExternalService-&gt;ExternalUseCases</title>
<path fill="none" stroke="black" d="M335,-455.5C335,-448.67 335,-440.35 335,-431.51"/>
<polygon fill="black" stroke="black" points="338.5,-431.63 335,-421.63 331.5,-431.63 338.5,-431.63"/>
</g>
<!-- Repositories -->
<g id="node5" class="node">
<title>Repositories</title>
<path fill="white" stroke="black" d="M309.47,-264C309.47,-264 138.53,-264 138.53,-264 132.53,-264 126.53,-258 126.53,-252 126.53,-252 126.53,-170 126.53,-170 126.53,-164 132.53,-158 138.53,-158 138.53,-158 309.47,-158 309.47,-158 315.47,-158 321.47,-164 321.47,-170 321.47,-170 321.47,-252 321.47,-252 321.47,-258 315.47,-264 309.47,-264"/>
<text xml:space="preserve" text-anchor="start" x="134.53" y="-248.4" font-family="Helvetica,sans-Serif" font-weight="bold" font-size="14.00">infrastructure/repositories/</text>
<text xml:space="preserve" text-anchor="start" x="134.53" y="-234.4" font-family="Helvetica,sans-Serif" font-size="14.00">UserRepository</text>
<text xml:space="preserve" text-anchor="start" x="134.53" y="-220.4" font-family="Helvetica,sans-Serif" font-size="14.00">UserProfileRepository</text>
<text xml:space="preserve" text-anchor="start" x="134.53" y="-206.4" font-family="Helvetica,sans-Serif" font-size="14.00">UserSettingsRepository</text>
<text xml:space="preserve" text-anchor="start" x="134.53" y="-192.4" font-family="Helvetica,sans-Serif" font-size="14.00">UserPrivacyRepository</text>
<text xml:space="preserve" text-anchor="start" x="134.53" y="-178.4" font-family="Helvetica,sans-Serif" font-size="14.00">UserStatsRepository</text>
<text xml:space="preserve" text-anchor="start" x="134.53" y="-164.4" font-family="Helvetica,sans-Serif" font-size="14.00">UserSessionRepository</text>
</g>
<!-- PresentationUseCases&#45;&gt;Repositories -->
<g id="edge3" class="edge">
<title>PresentationUseCases-&gt;Repositories</title>
<path fill="none" stroke="black" d="M163.19,-299.63C169.12,-291.09 175.23,-282.28 181.19,-273.69"/>
<polygon fill="black" stroke="black" points="183.89,-275.94 186.72,-265.73 178.14,-271.95 183.89,-275.94"/>
</g>
<!-- ExternalUseCases&#45;&gt;Repositories -->
<g id="edge4" class="edge">
<title>ExternalUseCases-&gt;Repositories</title>
<path fill="none" stroke="black" d="M290.17,-299.63C283.65,-291 276.93,-282.09 270.38,-273.42"/>
<polygon fill="black" stroke="black" points="273.36,-271.56 264.54,-265.69 267.78,-275.78 273.36,-271.56"/>
</g>
<!-- Domain -->
<g id="node6" class="node">
<title>Domain</title>
<path fill="white" stroke="black" d="M260.07,-122C260.07,-122 187.93,-122 187.93,-122 181.93,-122 175.93,-116 175.93,-110 175.93,-110 175.93,-28 175.93,-28 175.93,-22 181.93,-16 187.93,-16 187.93,-16 260.07,-16 260.07,-16 266.07,-16 272.07,-22 272.07,-28 272.07,-28 272.07,-110 272.07,-110 272.07,-116 266.07,-122 260.07,-122"/>
<text xml:space="preserve" text-anchor="start" x="183.93" y="-106.4" font-family="Helvetica,sans-Serif" font-weight="bold" font-size="14.00">domain/</text>
<text xml:space="preserve" text-anchor="start" x="183.93" y="-92.4" font-family="Helvetica,sans-Serif" font-size="14.00">User</text>
<text xml:space="preserve" text-anchor="start" x="183.93" y="-78.4" font-family="Helvetica,sans-Serif" font-size="14.00">UserProfile</text>
<text xml:space="preserve" text-anchor="start" x="183.93" y="-64.4" font-family="Helvetica,sans-Serif" font-size="14.00">UserSettings</text>
<text xml:space="preserve" text-anchor="start" x="183.93" y="-50.4" font-family="Helvetica,sans-Serif" font-size="14.00">UserPrivacy</text>
<text xml:space="preserve" text-anchor="start" x="183.93" y="-36.4" font-family="Helvetica,sans-Serif" font-size="14.00">UserStats</text>
<text xml:space="preserve" text-anchor="start" x="183.93" y="-22.4" font-family="Helvetica,sans-Serif" font-size="14.00">UserSession</text>
</g>
<!-- Repositories&#45;&gt;Domain -->
<g id="edge5" class="edge">
<title>Repositories-&gt;Domain</title>
<path fill="none" stroke="black" d="M224,-157.87C224,-149.94 224,-141.69 224,-133.55"/>
<polygon fill="black" stroke="black" points="227.5,-133.69 224,-123.69 220.5,-133.69 227.5,-133.69"/>
</g>
</g>
</svg>